<?xml version="1.0" encoding="UTF-8" standalone="no"?>
<!-- Created with Inkscape (http://www.inkscape.org/) -->

<svg
   width="139.32901mm"
   height="136.08095mm"
   viewBox="0 0 139.32901 136.08095"
   version="1.1"
   id="svg1"
   xmlns="http://www.w3.org/2000/svg"
   xmlns:svg="http://www.w3.org/2000/svg">
  <defs
     id="defs1" />
  <g
     id="layer1"
     transform="translate(-4.2743164,-3.5179416)">
    <path
       id="path31"
       style="fill:#fd9612;fill-opacity:1;stroke:#fd9612;stroke-width:1.765;stroke-linecap:square;stroke-linejoin:miter;stroke-miterlimit:8.5;stroke-dasharray:none;stroke-opacity:1;paint-order:fill markers stroke"
       d="m 71.667977,6.3649862 c 0,0 3.209377,8.9644138 -2.682524,5.8957638 -2.434166,-1.267775 2.486768,13.710987 1.259355,17.650603 -0.313753,1.007049 -1.857159,2.464258 -2.963643,3.733105 a 36.417732,37.073263 0 0 1 2.819982,-0.111621 36.417732,37.073263 0 0 1 5.228622,0.384473 c 2.175456,-3.633634 1.814613,-6.952532 -0.651123,-10.490833 0,0 -4.343028,-8.548803 -1.859318,-10.121863 3.983456,-2.522926 -1.151351,-6.9396278 -1.151351,-6.9396278 z m 15.007869,25.8904098 -5.494755,3.034956 a 36.417732,37.073263 0 0 1 6.052344,2.601392 z M 54.5915,33.351453 53.734188,37.488151 A 36.417732,37.073263 0 0 1 58.24399,35.553385 C 56.635519,34.780752 54.5915,33.351453 54.5915,33.351453 Z m -17.74517,1.1467 3.792016,8.550382 1.083138,4.324801 a 36.417732,37.073263 0 0 1 7.03523,-6.80527 L 45.66698,39.150065 Z m 67.48529,1.820044 c 0,0 -1.57228,1.142742 -9.946167,3.656107 -0.813022,0.244023 -1.676911,0.572242 -2.503723,0.920357 a 36.417732,37.073263 0 0 1 6.406327,6.237346 c 0.680173,-1.530725 1.564004,-3.039757 2.621033,-3.818372 3.34131,-2.461237 3.42253,-6.995438 3.42253,-6.995438 z m -1.96784,17.091463 a 36.417732,37.073263 0 0 1 1.94303,4.472595 l 3.34812,-2.945557 z m -64.555752,0.05891 -4.804358,1.319816 2.472718,4.327384 a 36.417732,37.073263 0 0 1 2.33164,-5.6472 z m 82.754642,11.05979 c -0.78104,0.0034 -1.6923,0.104674 -2.75901,0.335897 -1.57308,0.340983 -3.83267,2.975432 -5.43946,3.070613 -2.53369,0.150084 -3.19528,-2.887701 -6.16241,-2.210201 a 36.417732,37.073263 0 0 1 0.31729,4.881873 36.417732,37.073263 0 0 1 -0.34106,5.058606 c 0.0792,-0.01012 0.15537,-0.01843 0.22789,-0.02532 1.9744,-0.187486 6.15091,1.048317 8.06876,0.54312 2.69501,-0.709914 4.13956,-5.018736 5.83788,-5.073592 1.7181,-0.0555 3.228,1.497775 4.92115,1.794722 8.503,1.491271 0.59962,-5.283174 10.38128,-4.858101 1.54445,0.06712 2.93625,0.894519 2.93625,0.894519 0,0 -0.39939,-0.419809 -0.98857,-0.965316 -0.58917,-0.545507 -1.36791,-1.217144 -2.12803,-1.720308 -1.29522,-0.857369 -5.69153,-2.376815 -8.94881,1.416967 -1.36906,1.594554 -0.45592,-3.167297 -5.92315,-3.143477 z M 13.553178,64.760905 c -0.241676,0.0084 -0.485674,0.05438 -0.734839,0.144694 -2.353726,0.853133 -4.9397501,5.21932 -4.9397501,5.21932 0,0 3.5021711,-3.087211 5.6575361,-3.556889 2.155365,-0.469679 3.283647,1.806134 3.780131,2.812231 1.804302,3.656319 5.334848,6.174565 10.175089,4.951119 2.66644,-0.673984 4.750946,-0.66151 6.343282,-0.348299 a 36.417732,37.073263 0 0 1 -0.151412,-3.376538 36.417732,37.073263 0 0 1 0.327629,-4.960938 c -1.4587,0.412519 -3.010481,0.523606 -4.116545,-0.261999 -2.28128,-1.620328 -4.714802,4.023954 -7.468278,3.525883 C 18.006452,68.110041 15.88938,64.68002 13.553178,64.760905 Z M 104.7533,82.009981 a 36.417732,37.073263 0 0 1 -2.16886,5.357296 l 4.13411,-0.809253 z m -69.254692,0.155546 -3.679362,7.874972 6.585645,-1.178223 a 36.417732,37.073263 0 0 1 -2.906283,-6.696749 z m 64.483403,9.633521 a 36.417732,37.073263 0 0 1 -7.763867,8.260482 c 0.653458,0.15883 1.347744,0.27542 2.055688,0.31419 5.081513,0.27829 13.587798,5.09478 13.587798,5.09478 l -5.4224,-9.876919 z m -59.211373,0.781864 -1.900659,3.726905 -1.522388,4.142383 -2.701644,4.14238 c 0,0 2.825913,-1.4082 4.355807,-1.45107 4.049459,-0.11348 8.382385,-2.20809 9.425264,-2.74247 a 36.417732,37.073263 0 0 1 -0.183968,-0.13953 h -5.17e-4 l -0.52865,-0.0207 0.350883,-0.11679 a 36.417732,37.073263 0 0 1 -7.294128,-7.541138 z m 47.006433,10.439158 a 36.417732,37.073263 0 0 1 -6.569625,2.89336 l 6.239929,3.36414 z m -34.710026,0.35398 1.120862,5.15938 4.023527,-2.8851 a 36.417732,37.073263 0 0 1 -5.144389,-2.27428 z m 11.80238,3.92069 0.514181,2.61018 c 0.541052,2.74531 4.436422,4.22 2.060856,10.33064 -1.013874,2.60798 3.448845,3.17184 4.102075,8.27288 0.355419,2.77545 -1.293461,6.10453 -1.293461,6.10453 0,0 2.685155,-2.87137 3.186369,-5.48493 0.501213,-2.61356 -1.689772,-6.12441 -1.188558,-8.73797 0.501214,-2.61356 4.92843,-4.32989 2.513025,-9.29918 -0.456836,-0.93986 -0.322762,-2.35069 0.0083,-3.7176 a 36.417732,37.073263 0 0 1 -4.671033,0.30644 36.417732,37.073263 0 0 1 -5.231722,-0.38499 z" />
  </g>
  <g
     id="layer3"
     transform="translate(-4.2743164,-3.5179416)">
    <ellipse
       style="opacity:1;fill:#fd9612;fill-opacity:1;stroke:#fd9612;stroke-width:3.35187;stroke-linecap:square;stroke-linejoin:miter;stroke-miterlimit:8.5;stroke-dasharray:none;stroke-opacity:1;paint-order:fill markers stroke"
       id="path52"
       cx="70.070648"
       cy="70.645004"
       rx="30.139723"
       ry="31.633036" />
  </g>
</svg>
