<svg xmlns="http://www.w3.org/2000/svg" width="526.59783" height="514.3217" viewBox="0 0 139.32901 136.08095"><path d="M71.66798 6.36499s3.20937 8.96441-2.68253 5.89576c-2.43416-1.26778 2.48677 13.71099 1.25936 17.6506-.31376 1.00705-1.85716 2.46426-2.96365 3.7331a36.41773 37.07326 0 0 1 2.81999-.11161 36.41773 37.07326 0 0 1 5.22862.38447c2.17545-3.63363 1.81461-6.95253-.65112-10.49083 0 0-4.34303-8.5488-1.85932-10.12187C76.80278 10.7817 71.66798 6.365 71.66798 6.365zm15.00787 25.8904-5.49476 3.03496a36.41773 37.07326 0 0 1 6.05234 2.6014zM54.5915 33.35146l-.85731 4.1367a36.41773 37.07326 0 0 1 4.5098-1.93476c-1.60847-.77264-3.65249-2.20194-3.65249-2.20194Zm-17.74517 1.1467 3.79202 8.55039 1.08313 4.3248a36.41773 37.07326 0 0 1 7.03523-6.80527l-3.08973-1.418Zm67.48529 1.82005s-1.57228 1.14274-9.94617 3.6561c-.81302.24403-1.6769.57225-2.50372.92036a36.41773 37.07326 0 0 1 6.40633 6.23735c.68017-1.53073 1.564-3.03976 2.62103-3.81837 3.34131-2.46124 3.42253-6.99544 3.42253-6.99544zm-1.96784 17.09146a36.41773 37.07326 0 0 1 1.94303 4.4726l3.34812-2.94556zm-64.55575.05891-4.80436 1.31982 2.47272 4.32738a36.41773 37.07326 0 0 1 2.33164-5.6472zm82.75464 11.05979c-.78104.0034-1.6923.10467-2.75901.3359-1.57308.34098-3.83267 2.97543-5.43946 3.07061-2.53369.15008-3.19528-2.8877-6.16241-2.2102a36.41773 37.07326 0 0 1 .31729 4.88187 36.41773 37.07326 0 0 1-.34106 5.0586 7.1 7.1 0 0 1 .22789-.02531c1.9744-.18749 6.15091 1.04831 8.06876.54312 2.69501-.70992 4.13956-5.01874 5.83788-5.0736 1.7181-.0555 3.228 1.49778 4.92115 1.79473 8.503 1.49127.59962-5.28318 10.38128-4.8581 1.54445.06712 2.93625.89452 2.93625.89452s-.39939-.41981-.98857-.96532-1.36791-1.21714-2.12803-1.7203c-1.29522-.85738-5.69153-2.37682-8.94881 1.41696-1.36906 1.59455-.45592-3.1673-5.92315-3.14348zm-107.0095.23254c-.24167.0084-.48567.05438-.73483.1447-2.35373.85313-4.93975 5.21932-4.93975 5.21932s3.50217-3.08721 5.65754-3.55689c2.15536-.46968 3.28364 1.80613 3.78013 2.81223 1.8043 3.65632 5.33484 6.17457 10.17509 4.95112 2.66644-.67398 4.75094-.66151 6.34328-.3483a36.41773 37.07326 0 0 1-.15141-3.37654 36.41773 37.07326 0 0 1 .32762-4.96093c-1.4587.41251-3.01048.5236-4.11654-.262-2.28128-1.62033-4.7148 4.02395-7.46828 3.52588-4.41957-.79945-6.53664-4.22947-8.87284-4.14859Zm91.20013 17.24908a36.41773 37.07326 0 0 1-2.16886 5.3573l4.13411-.80926zm-69.2547.15555-3.67935 7.87497 6.58564-1.17822a36.41773 37.07326 0 0 1-2.90628-6.69675zm64.48341 9.63352a36.41773 37.07326 0 0 1-7.76387 8.26048c.65346.15883 1.34775.27542 2.0557.31419 5.0815.27829 13.58779 5.09478 13.58779 5.09478l-5.4224-9.87692zm-59.21137.78186-1.90066 3.7269-1.52239 4.14239-2.70164 4.14238s2.82591-1.4082 4.3558-1.45107c4.04946-.11348 8.38239-2.20809 9.42527-2.74247a36.41773 37.07326 0 0 1-.18397-.13953h-.00052l-.52865-.0207.35089-.11679a36.41773 37.07326 0 0 1-7.29413-7.54114zm47.00643 10.43916a36.41773 37.07326 0 0 1-6.56962 2.89336l6.23992 3.36414zm-34.71003.35398 1.12087 5.15938 4.02352-2.8851a36.41773 37.07326 0 0 1-5.14439-2.27428zm11.80238 3.92069.51419 2.61018c.54105 2.74531 4.43642 4.22 2.06085 10.33064-1.01387 2.60798 3.44885 3.17184 4.10208 8.27288.35542 2.77545-1.29346 6.10453-1.29346 6.10453s2.68515-2.87137 3.18636-5.48493c.50122-2.61356-1.68977-6.12441-1.18855-8.73797s4.92843-4.32989 2.51302-9.29918c-.45683-.93986-.32276-2.35069.0083-3.7176a36.41773 37.07326 0 0 1-4.67103.30644 36.41773 37.07326 0 0 1-5.23172-.38499z" style="fill:#fd9612;fill-opacity:1;stroke:#fd9612;stroke-width:1.765;stroke-linecap:square;stroke-linejoin:miter;stroke-miterlimit:8.5;stroke-dasharray:none;stroke-opacity:1;paint-order:fill markers stroke" transform="translate(-4.27432 -3.51794)"/><ellipse cx="70.07065" cy="70.645" rx="30.13972" ry="31.63304" style="opacity:1;fill:#fd9612;fill-opacity:1;stroke:#fd9612;stroke-width:3.35187;stroke-linecap:square;stroke-linejoin:miter;stroke-miterlimit:8.5;stroke-dasharray:none;stroke-opacity:1;paint-order:fill markers stroke" transform="translate(-4.27432 -3.51794)"/></svg>