<?xml version="1.0" encoding="UTF-8" standalone="no"?>
<svg
   width="241"
   height="194"
   viewBox="0 0 241 194"
   fill="none"
   version="1.1"
   id="svg7"
   sodipodi:docname="kofi_day.svg"
   inkscape:version="1.4.3 (0d15f75042, 2025-12-25)"
   xmlns:inkscape="http://www.inkscape.org/namespaces/inkscape"
   xmlns:sodipodi="http://sodipodi.sourceforge.net/DTD/sodipodi-0.dtd"
   xmlns="http://www.w3.org/2000/svg"
   xmlns:svg="http://www.w3.org/2000/svg">
  <defs
     id="defs7" />
  <sodipodi:namedview
     id="namedview7"
     pagecolor="#ffffff"
     bordercolor="#000000"
     borderopacity="0.25"
     inkscape:showpageshadow="2"
     inkscape:pageopacity="0.0"
     inkscape:pagecheckerboard="0"
     inkscape:deskcolor="#d1d1d1"
     inkscape:zoom="3.216917"
     inkscape:cx="127.29579"
     inkscape:cy="100.25127"
     inkscape:window-width="1868"
     inkscape:window-height="1044"
     inkscape:window-x="0"
     inkscape:window-y="0"
     inkscape:window-maximized="1"
     inkscape:current-layer="svg7" />
  <mask
     id="mask0_1_219"
     style="mask-type:luminance"
     maskUnits="userSpaceOnUse"
     x="-1"
     y="0"
     width="242"
     height="194">
    <path
       d="M240.469 0.958984H-0.00585938V193.918H240.469V0.958984Z"
       fill="white"
       id="path1" />
  </mask>
  <g
     mask="url(#mask0_1_219)"
     id="g7">
    <path
       d="M96.1344 193.911C61.1312 193.911 32.6597 178.256 15.9721 149.829C1.19788 124.912 -0.00585938 97.9229 -0.00585938 67.7662C-0.00585938 49.8876 5.37293 34.3215 15.5413 22.7466C24.8861 12.1157 38.1271 5.22907 52.8317 3.35378C70.2858 1.14271 91.9848 0.958984 114.545 0.958984C151.259 0.958984 161.63 1.4088 176.075 2.85328C195.29 4.76026 211.458 11.932 222.824 23.5955C234.368 35.4428 240.469 51.2624 240.469 69.3627V72.9994C240.469 103.885 219.821 129.733 191.046 136.759C188.898 141.827 186.237 146.871 183.089 151.837L183.006 151.964C172.869 167.632 149.042 193.918 103.401 193.918H96.1281L96.1344 193.911Z"
       fill="white"
       id="path2" />
    <path
       d="M174.568 17.9772C160.927 16.6151 151.38 16.1589 114.552 16.1589C90.908 16.1589 70.9008 16.387 54.7644 18.4334C33.3949 21.164 15.2058 37.5285 15.2058 67.7674C15.2058 98.0066 16.796 121.422 29.0741 142.107C42.9425 165.751 66.1302 178.707 96.1412 178.707H103.414C140.242 178.707 160.25 159.156 170.253 143.698C174.574 136.874 177.754 130.058 179.801 123.234C205.947 120.96 225.27 99.3624 225.27 72.9941V69.3577C225.27 40.9432 206.631 21.164 174.574 17.9772H174.568Z"
       fill="white"
       id="path3" />
    <path
       d="M15.1975 67.7674C15.1975 37.5285 33.3866 21.164 54.7559 18.4334C70.8987 16.387 90.906 16.1589 114.544 16.1589C151.372 16.1589 160.919 16.6151 174.559 17.9772C206.617 21.1576 225.255 40.937 225.255 69.3577V72.9941C225.255 99.3687 205.932 120.966 179.786 123.234C177.74 130.058 174.559 136.874 170.238 143.698C160.235 159.156 140.228 178.707 103.4 178.707H96.1264C66.1155 178.707 42.9277 165.751 29.0595 142.107C16.7814 121.422 15.1912 98.4563 15.1912 67.7674"
       fill="#202020"
       id="path4" />
    <path
       d="M32.2469 67.9899C32.2469 97.3168 34.0654 116.184 43.6127 133.689C54.5225 153.924 74.3018 161.653 96.8117 161.653H103.857C133.411 161.653 147.736 147.329 155.693 134.829C159.558 128.462 162.966 121.417 164.784 112.547L166.147 106.864H174.332C192.521 106.864 208.208 92.09 208.208 73.2166V69.8082C208.208 48.6669 195.024 37.5228 172.058 34.7987C159.102 33.6646 151.372 33.2084 114.538 33.2084C89.7602 33.2084 72.0272 33.4364 58.6152 35.4828C39.7483 38.2134 32.2407 48.8951 32.2407 67.9899"
       fill="white"
       id="path5" />
    <path
       d="M166.158 83.6801C166.158 86.4107 168.204 88.4572 171.841 88.4572C183.435 88.4572 189.802 81.8619 189.802 70.9523C189.802 60.0427 183.435 53.2195 171.841 53.2195C168.204 53.2195 166.158 55.2657 166.158 57.9963V83.6866V83.6801Z"
       fill="#202020"
       id="path6" />
    <path
       d="M54.5321 82.3198C54.5321 95.732 62.0332 107.326 71.5807 116.424C77.9478 122.562 87.9515 128.93 94.7685 133.022C96.8147 134.157 98.8611 134.841 101.136 134.841C103.866 134.841 106.134 134.157 107.959 133.022C114.782 128.93 124.779 122.562 130.919 116.424C140.694 107.332 148.195 95.7383 148.195 82.3198C148.195 67.7673 137.286 54.8115 121.599 54.8115C112.28 54.8115 105.912 59.5882 101.136 66.1772C96.8147 59.582 90.2259 54.8115 80.9001 54.8115C64.9855 54.8115 54.5256 67.7673 54.5256 82.3198"
       fill="#FF5A16"
       id="path7" />
  </g>
  <path
     style="fill:#fd9612;fill-opacity:1;stroke-width:0.23013"
     d="m 97.805457,134.20611 c -1.787912,-0.59746 -2.801712,-1.14993 -7.364176,-4.0131 -15.061727,-9.45199 -23.596389,-17.26773 -29.586809,-27.09455 -8.767192,-14.381896 -8.150971,-30.296246 1.564974,-40.4166 4.860017,-5.062307 11.202165,-7.685969 18.559097,-7.67765 7.661024,0.0087 14.223266,3.380572 18.975557,9.750307 l 1.18156,1.583699 0.69373,-0.893307 c 1.29283,-1.664743 4.5986,-4.952867 6.10181,-6.069235 2.83989,-2.109069 6.33955,-3.568085 9.95626,-4.150789 2.69952,-0.434932 7.55438,-0.178995 10.34258,0.545238 10.02796,2.604749 17.55119,11.072664 19.42813,21.86769 0.49797,2.864013 0.32115,9.044264 -0.34448,12.040643 -1.48024,6.663355 -4.7856,13.233884 -9.84444,19.569204 -2.06714,2.58874 -7.08429,7.66138 -10.09838,10.21008 -5.51893,4.66678 -18.24034,13.16601 -21.71214,14.506 -1.84524,0.71219 -6.058223,0.84221 -7.853273,0.24237 z"
     id="path8" />
  <path
     style="fill:#fd9612;fill-opacity:1;stroke-width:0.23013"
     d="m 97.403911,133.94521 c -1.459363,-0.52522 -2.795323,-1.27536 -7.307826,-4.10336 -14.503763,-9.08954 -23.531381,-17.43218 -29.315394,-27.09105 -8.803232,-14.700731 -7.77819,-30.938275 2.573832,-40.771683 4.335782,-4.118569 9.046884,-6.203935 15.246236,-6.748734 5.700075,-0.500922 11.347187,0.958016 15.682415,4.05157 1.785025,1.273768 4.431144,3.91595 5.708522,5.700032 0.832564,1.162817 1.495844,1.642579 1.495844,1.081962 0,-0.354058 4.82978,-5.280314 6.24321,-6.367928 4.52873,-3.484773 9.67938,-4.916653 15.98433,-4.443643 6.4688,0.485302 11.33584,2.694975 15.8907,7.214507 3.46629,3.4394 5.7232,7.164086 7.07858,11.682133 0.88229,2.941061 1.05952,4.337654 1.05805,8.337497 -0.002,4.581877 -0.39568,7.278037 -1.59919,10.943111 -3.38201,10.299386 -11.29608,20.406956 -22.6324,28.905336 -6.95859,5.21657 -15.83409,10.84459 -18.3079,11.6092 -2.0104,0.62137 -6.073856,0.62192 -7.799009,10e-4 z"
     id="path9" />
  <path
     style="fill:#fd9612;fill-opacity:1;stroke-width:0.23013"
     d="M 97.345196,133.93785 C 94.281377,132.80571 84.384739,126.41573 77.834015,121.34003 62.441761,109.41365 54.235614,95.090999 54.8565,81.236062 c 0.209328,-4.671125 1.111177,-8.188061 3.093111,-12.0622 2.551873,-4.988211 6.62025,-9.067265 11.434731,-11.46474 6.888047,-3.430052 15.619126,-3.45178 22.195461,-0.05524 2.535817,1.309698 5.409452,3.61503 7.087755,5.686048 0.728275,0.89869 1.599962,1.95267 1.937072,2.342177 l 0.61294,0.708195 0.52492,-0.689222 c 1.0965,-1.439731 5.21038,-5.493535 6.5339,-6.438491 3.01634,-2.153578 6.79422,-3.597508 10.485,-4.007431 2.25417,-0.250364 6.48189,-0.03541 8.66319,0.440475 9.85028,2.148981 17.78914,10.510664 19.96068,21.023786 0.48093,2.328309 0.48256,8.916398 0.003,11.880814 -0.42603,2.633236 -1.81982,6.904488 -3.21231,9.844062 -4.06151,8.573935 -11.23857,16.838465 -20.91997,24.089785 -5.86114,4.38997 -14.33446,9.8752 -17.30556,11.20281 -0.93495,0.41778 -1.6529,0.51715 -4.2327,0.58589 -2.686739,0.0716 -3.277875,0.0195 -4.372474,-0.38493 z"
     id="path10" />
  <path
     style="fill:#fd9612;fill-opacity:1;stroke-width:0.23013"
     d="M 97.690391,134.0863 C 94.758209,133.11586 84.533963,126.56841 77.89917,121.41229 63.448881,110.18251 55.429057,97.165514 54.835295,83.97727 c -0.291525,-6.475165 1.3987,-12.737438 4.783027,-17.72108 1.29693,-1.909815 4.273609,-4.994914 6.19045,-6.415927 4.648794,-3.446294 11.550574,-5.263437 17.5034,-4.608403 6.43701,0.708312 11.684572,3.597848 15.910083,8.760783 l 1.857585,2.269686 2.89295,-3.002838 c 4.02031,-4.173022 6.52022,-5.840518 10.76132,-7.17803 5.40669,-1.705105 12.56601,-1.130445 17.98346,1.443487 7.44886,3.539094 12.96998,10.826094 14.71039,19.415373 0.29804,1.470889 0.3485,2.785265 0.25676,6.687765 -0.0992,4.219029 -0.19001,5.144284 -0.69134,7.043326 -1.59992,6.06056 -4.29601,11.470728 -8.52553,17.107918 -2.67377,3.56366 -9.41039,10.33242 -13.1618,13.2246 -6.03332,4.65143 -14.63262,10.37064 -18.50019,12.30409 l -1.93079,0.96523 -3.13208,0.0589 c -2.127789,0.04 -3.427237,-0.0388 -4.052599,-0.2458 z"
     id="path11" />
  <path
     style="fill:#fd9612;fill-opacity:1;stroke-width:0.23013"
     d="m 97.690391,134.0863 c -1.883788,-0.62346 -5.386519,-2.67651 -11.391459,-6.67685 -7.398658,-4.92881 -11.625631,-8.28703 -16.240527,-12.9027 -7.921222,-7.92255 -12.679754,-16.125053 -14.628669,-25.216121 -0.69733,-3.252826 -0.760705,-9.687465 -0.124661,-12.657177 1.296867,-6.055115 3.79694,-10.587262 8.097991,-14.680085 4.326874,-4.117396 8.779516,-6.119831 15.008227,-6.749478 4.333037,-0.438018 9.12075,0.402778 12.786731,2.245547 3.29192,1.65474 5.515864,3.467908 8.105845,6.608641 l 1.761241,2.135761 3.49057,-3.471065 c 4.2918,-4.267803 6.27626,-5.530035 10.73969,-6.831085 4.38638,-1.278586 10.70905,-0.977807 15.36185,0.730786 8.50513,3.123242 15.27613,11.464231 16.8723,20.784468 0.38023,2.220243 0.15042,10.57676 -0.3458,12.574078 -1.64119,6.605827 -5.1462,13.48364 -9.81325,19.2563 -2.14667,2.65521 -8.71624,9.13623 -11.4795,11.32475 -5.36783,4.25136 -14.77958,10.55588 -18.83945,12.61971 l -2.1454,1.09061 -3.1476,0.0593 c -2.14155,0.0403 -3.441828,-0.0381 -4.068129,-0.24537 z"
     id="path12" />
  <path
     style="fill:#fd9612;fill-opacity:1;stroke-width:0.23013"
     d="M 97.690391,134.08561 C 93.798303,132.79645 80.795472,124.10009 73.986951,118.23262 64.064685,109.68178 57.736366,99.830034 55.397633,89.293294 54.688301,86.097527 54.694228,79.072211 55.408853,75.992907 56.6943,70.453941 59.235665,65.943534 63.248407,62.079293 c 4.281044,-4.122614 8.712957,-6.165055 14.897324,-6.86541 8.224774,-0.931423 15.860768,2.277872 21.244128,8.928591 l 1.679211,2.074537 3.02702,-3.099272 c 4.35662,-4.460603 7.41466,-6.352123 12.00474,-7.425413 2.71942,-0.635877 4.96562,-0.766005 8.02097,-0.464676 3.45511,0.340753 5.6959,0.925224 8.34651,2.177039 2.77775,1.311861 4.64728,2.598049 6.85082,4.713205 4.24379,4.073568 7.21011,9.541441 8.19546,15.106868 0.38215,2.158445 0.17271,10.650896 -0.3146,12.756258 -1.53147,6.616555 -5.64636,14.38923 -10.78214,20.36655 -2.68282,3.12242 -7.55176,7.8518 -10.50868,10.20749 -5.54403,4.41674 -14.77269,10.58298 -19.35875,12.93478 -1.45725,0.7473 -1.57901,0.76882 -4.71768,0.83388 -2.221415,0.046 -3.507658,-0.0279 -4.142349,-0.23811 z"
     id="path13" />
</svg>
